<?xml version="1.0" encoding="UTF-8" standalone="no"?>
<!DOCTYPE svg PUBLIC "-//W3C//DTD SVG 1.1//EN"
 "http://www.w3.org/Graphics/SVG/1.1/DTD/svg11.dtd">
<!-- Generated by graphviz version 2.47.3 (20210619.1520)
 -->
<!-- Title: dependencies Pages: 1 -->
<svg width="8598pt" height="247pt"
 viewBox="0.00 0.00 8598.00 246.80" xmlns="http://www.w3.org/2000/svg" xmlns:xlink="http://www.w3.org/1999/xlink">
<g id="graph0" class="graph" transform="scale(1 1) rotate(0) translate(4 242.8)">
<title>dependencies</title>
<polygon fill="white" stroke="transparent" points="-4,4 -4,-242.8 8594,-242.8 8594,4 -4,4"/>
<text text-anchor="middle" x="4295" y="-8.2" font-family="sans-serif" font-size="14.00">dependencies</text>
<g id="clust1" class="cluster">
<title>cluster_AppModule</title>
<polygon fill="none" stroke="black" stroke-dasharray="1,5" points="8,-32.8 8,-230.8 8582,-230.8 8582,-32.8 8,-32.8"/>
</g>
<g id="clust50" class="cluster">
<title>cluster_AppModule_imports</title>
<polygon fill="none" stroke="black" points="8430,-40.8 8430,-92.8 8574,-92.8 8574,-40.8 8430,-40.8"/>
</g>
<g id="clust52" class="cluster">
<title>cluster_AppModule_bootstrap</title>
<polygon fill="none" stroke="black" points="4120,-170.8 4120,-222.8 4244,-222.8 4244,-170.8 4120,-170.8"/>
</g>
<g id="clust2" class="cluster">
<title>cluster_AppModule_declarations</title>
<polygon fill="none" stroke="black" points="16,-40.8 16,-92.8 8422,-92.8 8422,-40.8 16,-40.8"/>
</g>
<!-- AppComponent -->
<g id="node1" class="node">
<title>AppComponent</title>
<polygon fill="#ffffb3" stroke="black" points="8413.94,-84.8 8308.06,-84.8 8308.06,-48.8 8413.94,-48.8 8413.94,-84.8"/>
<text text-anchor="middle" x="8361" y="-62.6" font-family="Times,serif" font-size="14.00">AppComponent</text>
</g>
<!-- AppModule -->
<g id="node48" class="node">
<title>AppModule</title>
<polygon fill="#8dd3c7" stroke="black" points="4223.66,-149.8 4220.66,-153.8 4199.66,-153.8 4196.66,-149.8 4140.34,-149.8 4140.34,-113.8 4223.66,-113.8 4223.66,-149.8"/>
<text text-anchor="middle" x="4182" y="-127.6" font-family="Times,serif" font-size="14.00">AppModule</text>
</g>
<!-- AppComponent&#45;&gt;AppModule -->
<g id="edge1" class="edge">
<title>AppComponent&#45;&gt;AppModule</title>
<path fill="none" stroke="black" d="M8361,-84.95C8361,-108.56 8361,-146.8 8361,-146.8 8361,-146.8 4233.7,-146.8 4233.7,-146.8"/>
<polygon fill="black" stroke="black" points="4233.7,-143.3 4223.7,-146.8 4233.7,-150.3 4233.7,-143.3"/>
</g>
<!-- AttestationPanelComponent -->
<g id="node2" class="node">
<title>AttestationPanelComponent</title>
<polygon fill="#ffffb3" stroke="black" points="8289.87,-84.8 8116.13,-84.8 8116.13,-48.8 8289.87,-48.8 8289.87,-84.8"/>
<text text-anchor="middle" x="8203" y="-62.6" font-family="Times,serif" font-size="14.00">AttestationPanelComponent</text>
</g>
<!-- AttestationPanelComponent&#45;&gt;AppModule -->
<g id="edge2" class="edge">
<title>AttestationPanelComponent&#45;&gt;AppModule</title>
<path fill="none" stroke="black" d="M8203,-85.12C8203,-108.46 8203,-145.8 8203,-145.8 8203,-145.8 4233.77,-145.8 4233.77,-145.8"/>
<polygon fill="black" stroke="black" points="4233.77,-142.3 4223.77,-145.8 4233.77,-149.3 4233.77,-142.3"/>
</g>
<!-- BibliographyPanelComponent -->
<g id="node3" class="node">
<title>BibliographyPanelComponent</title>
<polygon fill="#ffffb3" stroke="black" points="8098.32,-84.8 7911.68,-84.8 7911.68,-48.8 8098.32,-48.8 8098.32,-84.8"/>
<text text-anchor="middle" x="8005" y="-62.6" font-family="Times,serif" font-size="14.00">BibliographyPanelComponent</text>
</g>
<!-- BibliographyPanelComponent&#45;&gt;AppModule -->
<g id="edge3" class="edge">
<title>BibliographyPanelComponent&#45;&gt;AppModule</title>
<path fill="none" stroke="black" d="M8005,-85.05C8005,-107.82 8005,-143.8 8005,-143.8 8005,-143.8 4233.96,-143.8 4233.96,-143.8"/>
<polygon fill="black" stroke="black" points="4233.96,-140.3 4223.96,-143.8 4233.96,-147.3 4233.96,-140.3"/>
</g>
<!-- CoreTabComponent -->
<g id="node4" class="node">
<title>CoreTabComponent</title>
<polygon fill="#ffffb3" stroke="black" points="7894.31,-84.8 7763.69,-84.8 7763.69,-48.8 7894.31,-48.8 7894.31,-84.8"/>
<text text-anchor="middle" x="7829" y="-62.6" font-family="Times,serif" font-size="14.00">CoreTabComponent</text>
</g>
<!-- CoreTabComponent&#45;&gt;AppModule -->
<g id="edge4" class="edge">
<title>CoreTabComponent&#45;&gt;AppModule</title>
<path fill="none" stroke="black" d="M7829,-84.81C7829,-107.29 7829,-142.8 7829,-142.8 7829,-142.8 4233.9,-142.8 4233.9,-142.8"/>
<polygon fill="black" stroke="black" points="4233.9,-139.3 4223.9,-142.8 4233.9,-146.3 4233.9,-139.3"/>
</g>
<!-- DataSearchFormComponent -->
<g id="node5" class="node">
<title>DataSearchFormComponent</title>
<polygon fill="#ffffb3" stroke="black" points="7746.18,-84.8 7569.82,-84.8 7569.82,-48.8 7746.18,-48.8 7746.18,-84.8"/>
<text text-anchor="middle" x="7658" y="-62.6" font-family="Times,serif" font-size="14.00">DataSearchFormComponent</text>
</g>
<!-- DataSearchFormComponent&#45;&gt;AppModule -->
<g id="edge5" class="edge">
<title>DataSearchFormComponent&#45;&gt;AppModule</title>
<path fill="none" stroke="black" d="M7658,-85.09C7658,-107.01 7658,-140.8 7658,-140.8 7658,-140.8 4233.77,-140.8 4233.77,-140.8"/>
<polygon fill="black" stroke="black" points="4233.77,-137.3 4223.77,-140.8 4233.77,-144.3 4233.77,-137.3"/>
</g>
<!-- DecompositionTabComponent -->
<g id="node6" class="node">
<title>DecompositionTabComponent</title>
<polygon fill="#ffffb3" stroke="black" points="7552.14,-84.8 7363.86,-84.8 7363.86,-48.8 7552.14,-48.8 7552.14,-84.8"/>
<text text-anchor="middle" x="7458" y="-62.6" font-family="Times,serif" font-size="14.00">DecompositionTabComponent</text>
</g>
<!-- DecompositionTabComponent&#45;&gt;AppModule -->
<g id="edge6" class="edge">
<title>DecompositionTabComponent&#45;&gt;AppModule</title>
<path fill="none" stroke="black" d="M7458,-84.84C7458,-106.46 7458,-139.8 7458,-139.8 7458,-139.8 4233.72,-139.8 4233.72,-139.8"/>
<polygon fill="black" stroke="black" points="4233.72,-136.3 4223.72,-139.8 4233.72,-143.3 4233.72,-136.3"/>
</g>
<!-- DictionaryTabComponent -->
<g id="node7" class="node">
<title>DictionaryTabComponent</title>
<polygon fill="#ffffb3" stroke="black" points="7345.47,-84.8 7182.53,-84.8 7182.53,-48.8 7345.47,-48.8 7345.47,-84.8"/>
<text text-anchor="middle" x="7264" y="-62.6" font-family="Times,serif" font-size="14.00">DictionaryTabComponent</text>
</g>
<!-- DictionaryTabComponent&#45;&gt;AppModule -->
<g id="edge7" class="edge">
<title>DictionaryTabComponent&#45;&gt;AppModule</title>
<path fill="none" stroke="black" d="M7264,-85.08C7264,-106.12 7264,-137.8 7264,-137.8 7264,-137.8 4233.81,-137.8 4233.81,-137.8"/>
<polygon fill="black" stroke="black" points="4233.81,-134.3 4223.81,-137.8 4233.81,-141.3 4233.81,-134.3"/>
</g>
<!-- DocumentSystemTreeComponent -->
<g id="node8" class="node">
<title>DocumentSystemTreeComponent</title>
<polygon fill="#ffffb3" stroke="black" points="7164.02,-84.8 6957.98,-84.8 6957.98,-48.8 7164.02,-48.8 7164.02,-84.8"/>
<text text-anchor="middle" x="7061" y="-62.6" font-family="Times,serif" font-size="14.00">DocumentSystemTreeComponent</text>
</g>
<!-- DocumentSystemTreeComponent&#45;&gt;AppModule -->
<g id="edge8" class="edge">
<title>DocumentSystemTreeComponent&#45;&gt;AppModule</title>
<path fill="none" stroke="black" d="M7061,-84.83C7061,-105.57 7061,-136.8 7061,-136.8 7061,-136.8 4233.81,-136.8 4233.81,-136.8"/>
<polygon fill="black" stroke="black" points="4233.81,-133.3 4223.81,-136.8 4233.81,-140.3 4233.81,-133.3"/>
</g>
<!-- EditDetailComponent -->
<g id="node9" class="node">
<title>EditDetailComponent</title>
<polygon fill="#ffffb3" stroke="black" points="6939.37,-84.8 6800.63,-84.8 6800.63,-48.8 6939.37,-48.8 6939.37,-84.8"/>
<text text-anchor="middle" x="6870" y="-62.6" font-family="Times,serif" font-size="14.00">EditDetailComponent</text>
</g>
<!-- EditDetailComponent&#45;&gt;AppModule -->
<g id="edge9" class="edge">
<title>EditDetailComponent&#45;&gt;AppModule</title>
<path fill="none" stroke="black" d="M6870,-85.02C6870,-105.17 6870,-134.8 6870,-134.8 6870,-134.8 4233.68,-134.8 4233.68,-134.8"/>
<polygon fill="black" stroke="black" points="4233.68,-131.3 4223.68,-134.8 4233.68,-138.3 4233.68,-131.3"/>
</g>
<!-- EpidocTabComponent -->
<g id="node10" class="node">
<title>EpidocTabComponent</title>
<polygon fill="#ffffb3" stroke="black" points="6782.26,-84.8 6639.74,-84.8 6639.74,-48.8 6782.26,-48.8 6782.26,-84.8"/>
<text text-anchor="middle" x="6711" y="-62.6" font-family="Times,serif" font-size="14.00">EpidocTabComponent</text>
</g>
<!-- EpidocTabComponent&#45;&gt;AppModule -->
<g id="edge10" class="edge">
<title>EpidocTabComponent&#45;&gt;AppModule</title>
<path fill="none" stroke="black" d="M6711,-85.11C6711,-104.95 6711,-133.8 6711,-133.8 6711,-133.8 4233.79,-133.8 4233.79,-133.8"/>
<polygon fill="black" stroke="black" points="4233.79,-130.3 4223.79,-133.8 4233.79,-137.3 4233.79,-130.3"/>
</g>
<!-- EpigraphyDetailComponent -->
<g id="node11" class="node">
<title>EpigraphyDetailComponent</title>
<polygon fill="#ffffb3" stroke="black" points="6621.86,-84.8 6448.14,-84.8 6448.14,-48.8 6621.86,-48.8 6621.86,-84.8"/>
<text text-anchor="middle" x="6535" y="-62.6" font-family="Times,serif" font-size="14.00">EpigraphyDetailComponent</text>
</g>
<!-- EpigraphyDetailComponent&#45;&gt;AppModule -->
<g id="edge11" class="edge">
<title>EpigraphyDetailComponent&#45;&gt;AppModule</title>
<path fill="none" stroke="black" d="M6535,-84.91C6535,-104.14 6535,-131.8 6535,-131.8 6535,-131.8 4233.84,-131.8 4233.84,-131.8"/>
<polygon fill="black" stroke="black" points="4233.84,-128.3 4223.84,-131.8 4233.84,-135.3 4233.84,-128.3"/>
</g>
<!-- EpigraphyTabComponent -->
<g id="node12" class="node">
<title>EpigraphyTabComponent</title>
<polygon fill="#ffffb3" stroke="black" points="6429.92,-84.8 6268.08,-84.8 6268.08,-48.8 6429.92,-48.8 6429.92,-84.8"/>
<text text-anchor="middle" x="6349" y="-62.6" font-family="Times,serif" font-size="14.00">EpigraphyTabComponent</text>
</g>
<!-- EpigraphyTabComponent&#45;&gt;AppModule -->
<g id="edge12" class="edge">
<title>EpigraphyTabComponent&#45;&gt;AppModule</title>
<path fill="none" stroke="black" d="M6349,-84.97C6349,-103.89 6349,-130.8 6349,-130.8 6349,-130.8 4233.83,-130.8 4233.83,-130.8"/>
<polygon fill="black" stroke="black" points="4233.83,-127.3 4223.83,-130.8 4233.83,-134.3 4233.83,-127.3"/>
</g>
<!-- EtymologyFormComponent -->
<g id="node13" class="node">
<title>EtymologyFormComponent</title>
<polygon fill="#ffffb3" stroke="black" points="6249.89,-84.8 6076.11,-84.8 6076.11,-48.8 6249.89,-48.8 6249.89,-84.8"/>
<text text-anchor="middle" x="6163" y="-62.6" font-family="Times,serif" font-size="14.00">EtymologyFormComponent</text>
</g>
<!-- EtymologyFormComponent&#45;&gt;AppModule -->
<g id="edge13" class="edge">
<title>EtymologyFormComponent&#45;&gt;AppModule</title>
<path fill="none" stroke="black" d="M6163,-85.07C6163,-103.36 6163,-128.8 6163,-128.8 6163,-128.8 4233.83,-128.8 4233.83,-128.8"/>
<polygon fill="black" stroke="black" points="4233.83,-125.3 4223.83,-128.8 4233.83,-132.3 4233.83,-125.3"/>
</g>
<!-- EtymologyTabComponent -->
<g id="node14" class="node">
<title>EtymologyTabComponent</title>
<polygon fill="#ffffb3" stroke="black" points="6057.82,-84.8 5892.18,-84.8 5892.18,-48.8 6057.82,-48.8 6057.82,-84.8"/>
<text text-anchor="middle" x="5975" y="-62.6" font-family="Times,serif" font-size="14.00">EtymologyTabComponent</text>
</g>
<!-- EtymologyTabComponent&#45;&gt;AppModule -->
<g id="edge14" class="edge">
<title>EtymologyTabComponent&#45;&gt;AppModule</title>
<path fill="none" stroke="black" d="M5975,-85.1C5975,-103.07 5975,-127.8 5975,-127.8 5975,-127.8 4233.68,-127.8 4233.68,-127.8"/>
<polygon fill="black" stroke="black" points="4233.68,-124.3 4223.68,-127.8 4233.68,-131.3 4233.68,-124.3"/>
</g>
<!-- FileTabComponent -->
<g id="node15" class="node">
<title>FileTabComponent</title>
<polygon fill="#ffffb3" stroke="black" points="5874.38,-84.8 5749.62,-84.8 5749.62,-48.8 5874.38,-48.8 5874.38,-84.8"/>
<text text-anchor="middle" x="5812" y="-62.6" font-family="Times,serif" font-size="14.00">FileTabComponent</text>
</g>
<!-- FileTabComponent&#45;&gt;AppModule -->
<g id="edge15" class="edge">
<title>FileTabComponent&#45;&gt;AppModule</title>
<path fill="none" stroke="black" d="M5812,-84.82C5812,-102.17 5812,-125.8 5812,-125.8 5812,-125.8 4233.93,-125.8 4233.93,-125.8"/>
<polygon fill="black" stroke="black" points="4233.93,-122.3 4223.93,-125.8 4233.93,-129.3 4233.93,-122.3"/>
</g>
<!-- FormCoreFormComponent -->
<g id="node16" class="node">
<title>FormCoreFormComponent</title>
<polygon fill="#ffffb3" stroke="black" points="5731.71,-84.8 5562.29,-84.8 5562.29,-48.8 5731.71,-48.8 5731.71,-84.8"/>
<text text-anchor="middle" x="5647" y="-62.6" font-family="Times,serif" font-size="14.00">FormCoreFormComponent</text>
</g>
<!-- FormCoreFormComponent&#45;&gt;AppModule -->
<g id="edge16" class="edge">
<title>FormCoreFormComponent&#45;&gt;AppModule</title>
<path fill="none" stroke="black" d="M5647,-84.83C5647,-101.86 5647,-124.8 5647,-124.8 5647,-124.8 4233.87,-124.8 4233.87,-124.8"/>
<polygon fill="black" stroke="black" points="4233.87,-121.3 4223.87,-124.8 4233.87,-128.3 4233.87,-121.3"/>
</g>
<!-- FormTabComponent -->
<g id="node17" class="node">
<title>FormTabComponent</title>
<polygon fill="#ffffb3" stroke="black" points="5544.93,-84.8 5411.07,-84.8 5411.07,-48.8 5544.93,-48.8 5544.93,-84.8"/>
<text text-anchor="middle" x="5478" y="-62.6" font-family="Times,serif" font-size="14.00">FormTabComponent</text>
</g>
<!-- FormTabComponent&#45;&gt;AppModule -->
<g id="edge17" class="edge">
<title>FormTabComponent&#45;&gt;AppModule</title>
<path fill="none" stroke="black" d="M5478,-84.83C5478,-101.2 5478,-122.8 5478,-122.8 5478,-122.8 4234.02,-122.8 4234.02,-122.8"/>
<polygon fill="black" stroke="black" points="4234.02,-119.3 4224.02,-122.8 4234.02,-126.3 4234.02,-119.3"/>
</g>
<!-- FrameTabComponent -->
<g id="node18" class="node">
<title>FrameTabComponent</title>
<polygon fill="#ffffb3" stroke="black" points="5393.36,-84.8 5254.64,-84.8 5254.64,-48.8 5393.36,-48.8 5393.36,-84.8"/>
<text text-anchor="middle" x="5324" y="-62.6" font-family="Times,serif" font-size="14.00">FrameTabComponent</text>
</g>
<!-- FrameTabComponent&#45;&gt;AppModule -->
<g id="edge18" class="edge">
<title>FrameTabComponent&#45;&gt;AppModule</title>
<path fill="none" stroke="black" d="M5324,-84.81C5324,-100.85 5324,-121.8 5324,-121.8 5324,-121.8 4233.66,-121.8 4233.66,-121.8"/>
<polygon fill="black" stroke="black" points="4233.66,-118.3 4223.66,-121.8 4233.66,-125.3 4233.66,-118.3"/>
</g>
<!-- HomePageComponent -->
<g id="node19" class="node">
<title>HomePageComponent</title>
<polygon fill="#ffffb3" stroke="black" points="5236.26,-84.8 5093.74,-84.8 5093.74,-48.8 5236.26,-48.8 5236.26,-84.8"/>
<text text-anchor="middle" x="5165" y="-62.6" font-family="Times,serif" font-size="14.00">HomePageComponent</text>
</g>
<!-- HomePageComponent&#45;&gt;AppModule -->
<g id="edge19" class="edge">
<title>HomePageComponent&#45;&gt;AppModule</title>
<path fill="none" stroke="black" d="M5165,-85.04C5165,-100.37 5165,-119.8 5165,-119.8 5165,-119.8 4233.92,-119.8 4233.92,-119.8"/>
<polygon fill="black" stroke="black" points="4233.92,-116.3 4223.92,-119.8 4233.92,-123.3 4233.92,-116.3"/>
</g>
<!-- LanguageManagerComponent -->
<g id="node20" class="node">
<title>LanguageManagerComponent</title>
<polygon fill="#ffffb3" stroke="black" points="5075.28,-84.8 4888.72,-84.8 4888.72,-48.8 5075.28,-48.8 5075.28,-84.8"/>
<text text-anchor="middle" x="4982" y="-62.6" font-family="Times,serif" font-size="14.00">LanguageManagerComponent</text>
</g>
<!-- LanguageManagerComponent&#45;&gt;AppModule -->
<g id="edge20" class="edge">
<title>LanguageManagerComponent&#45;&gt;AppModule</title>
<path fill="none" stroke="black" d="M4982,-84.99C4982,-99.98 4982,-118.8 4982,-118.8 4982,-118.8 4233.89,-118.8 4233.89,-118.8"/>
<polygon fill="black" stroke="black" points="4233.89,-115.3 4223.89,-118.8 4233.89,-122.3 4233.89,-115.3"/>
</g>
<!-- LexicalConceptFormComponent -->
<g id="node21" class="node">
<title>LexicalConceptFormComponent</title>
<polygon fill="#ffffb3" stroke="black" points="4871.3,-84.8 4670.7,-84.8 4670.7,-48.8 4871.3,-48.8 4871.3,-84.8"/>
<text text-anchor="middle" x="4771" y="-62.6" font-family="Times,serif" font-size="14.00">LexicalConceptFormComponent</text>
</g>
<!-- LexicalConceptFormComponent&#45;&gt;AppModule -->
<g id="edge21" class="edge">
<title>LexicalConceptFormComponent&#45;&gt;AppModule</title>
<path fill="none" stroke="black" d="M4771,-84.85C4771,-99.17 4771,-116.8 4771,-116.8 4771,-116.8 4233.89,-116.8 4233.89,-116.8"/>
<polygon fill="black" stroke="black" points="4233.89,-113.3 4223.89,-116.8 4233.89,-120.3 4233.89,-113.3"/>
</g>
<!-- LexicalEntryCoreFormComponent -->
<g id="node22" class="node">
<title>LexicalEntryCoreFormComponent</title>
<polygon fill="#ffffb3" stroke="black" points="4652.96,-84.8 4441.04,-84.8 4441.04,-48.8 4652.96,-48.8 4652.96,-84.8"/>
<text text-anchor="middle" x="4547" y="-62.6" font-family="Times,serif" font-size="14.00">LexicalEntryCoreFormComponent</text>
</g>
<!-- LexicalEntryCoreFormComponent&#45;&gt;AppModule -->
<g id="edge22" class="edge">
<title>LexicalEntryCoreFormComponent&#45;&gt;AppModule</title>
<path fill="none" stroke="black" d="M4547,-85.05C4547,-98.98 4547,-115.8 4547,-115.8 4547,-115.8 4233.87,-115.8 4233.87,-115.8"/>
<polygon fill="black" stroke="black" points="4233.87,-112.3 4223.87,-115.8 4233.87,-119.3 4233.87,-112.3"/>
</g>
<!-- LexicalEntryDecompFormComponent -->
<g id="node23" class="node">
<title>LexicalEntryDecompFormComponent</title>
<polygon fill="#ffffb3" stroke="black" points="4423.17,-84.8 4190.83,-84.8 4190.83,-48.8 4423.17,-48.8 4423.17,-84.8"/>
<text text-anchor="middle" x="4307" y="-62.6" font-family="Times,serif" font-size="14.00">LexicalEntryDecompFormComponent</text>
</g>
<!-- LexicalEntryDecompFormComponent&#45;&gt;AppModule -->
<g id="edge23" class="edge">
<title>LexicalEntryDecompFormComponent&#45;&gt;AppModule</title>
<path fill="none" stroke="black" d="M4207.37,-84.91C4207.37,-84.91 4207.37,-103.79 4207.37,-103.79"/>
<polygon fill="black" stroke="black" points="4203.87,-103.79 4207.37,-113.79 4210.87,-103.79 4203.87,-103.79"/>
</g>
<!-- LexicalEntrySynsemFormComponent -->
<g id="node24" class="node">
<title>LexicalEntrySynsemFormComponent</title>
<polygon fill="#ffffb3" stroke="black" points="4172.58,-84.8 3943.42,-84.8 3943.42,-48.8 4172.58,-48.8 4172.58,-84.8"/>
<text text-anchor="middle" x="4058" y="-62.6" font-family="Times,serif" font-size="14.00">LexicalEntrySynsemFormComponent</text>
</g>
<!-- LexicalEntrySynsemFormComponent&#45;&gt;AppModule -->
<g id="edge24" class="edge">
<title>LexicalEntrySynsemFormComponent&#45;&gt;AppModule</title>
<path fill="none" stroke="black" d="M4156.36,-84.91C4156.36,-84.91 4156.36,-103.79 4156.36,-103.79"/>
<polygon fill="black" stroke="black" points="4152.86,-103.79 4156.36,-113.79 4159.86,-103.79 4152.86,-103.79"/>
</g>
<!-- LexicalEntryTreeComponent -->
<g id="node25" class="node">
<title>LexicalEntryTreeComponent</title>
<polygon fill="#ffffb3" stroke="black" points="3925.06,-84.8 3744.94,-84.8 3744.94,-48.8 3925.06,-48.8 3925.06,-84.8"/>
<text text-anchor="middle" x="3835" y="-62.6" font-family="Times,serif" font-size="14.00">LexicalEntryTreeComponent</text>
</g>
<!-- LexicalEntryTreeComponent&#45;&gt;AppModule -->
<g id="edge25" class="edge">
<title>LexicalEntryTreeComponent&#45;&gt;AppModule</title>
<path fill="none" stroke="black" d="M3835,-85.05C3835,-98.98 3835,-115.8 3835,-115.8 3835,-115.8 4130.14,-115.8 4130.14,-115.8"/>
<polygon fill="black" stroke="black" points="4130.14,-119.3 4140.14,-115.8 4130.14,-112.3 4130.14,-119.3"/>
</g>
<!-- LexicalEntryVartransFormComponent -->
<g id="node26" class="node">
<title>LexicalEntryVartransFormComponent</title>
<polygon fill="#ffffb3" stroke="black" points="3727.44,-84.8 3494.56,-84.8 3494.56,-48.8 3727.44,-48.8 3727.44,-84.8"/>
<text text-anchor="middle" x="3611" y="-62.6" font-family="Times,serif" font-size="14.00">LexicalEntryVartransFormComponent</text>
</g>
<!-- LexicalEntryVartransFormComponent&#45;&gt;AppModule -->
<g id="edge26" class="edge">
<title>LexicalEntryVartransFormComponent&#45;&gt;AppModule</title>
<path fill="none" stroke="black" d="M3611,-84.85C3611,-99.17 3611,-116.8 3611,-116.8 3611,-116.8 4130.01,-116.8 4130.01,-116.8"/>
<polygon fill="black" stroke="black" points="4130.01,-120.3 4140.01,-116.8 4130.01,-113.3 4130.01,-120.3"/>
</g>
<!-- LexiconPageComponent -->
<g id="node27" class="node">
<title>LexiconPageComponent</title>
<polygon fill="#ffffb3" stroke="black" points="3476.42,-84.8 3321.58,-84.8 3321.58,-48.8 3476.42,-48.8 3476.42,-84.8"/>
<text text-anchor="middle" x="3399" y="-62.6" font-family="Times,serif" font-size="14.00">LexiconPageComponent</text>
</g>
<!-- LexiconPageComponent&#45;&gt;AppModule -->
<g id="edge27" class="edge">
<title>LexiconPageComponent&#45;&gt;AppModule</title>
<path fill="none" stroke="black" d="M3399,-84.99C3399,-99.98 3399,-118.8 3399,-118.8 3399,-118.8 4130.18,-118.8 4130.18,-118.8"/>
<polygon fill="black" stroke="black" points="4130.18,-122.3 4140.18,-118.8 4130.18,-115.3 4130.18,-122.3"/>
</g>
<!-- LexiconPanelComponent -->
<g id="node28" class="node">
<title>LexiconPanelComponent</title>
<polygon fill="#ffffb3" stroke="black" points="3304.31,-84.8 3145.69,-84.8 3145.69,-48.8 3304.31,-48.8 3304.31,-84.8"/>
<text text-anchor="middle" x="3225" y="-62.6" font-family="Times,serif" font-size="14.00">LexiconPanelComponent</text>
</g>
<!-- LexiconPanelComponent&#45;&gt;AppModule -->
<g id="edge28" class="edge">
<title>LexiconPanelComponent&#45;&gt;AppModule</title>
<path fill="none" stroke="black" d="M3225,-85.04C3225,-100.37 3225,-119.8 3225,-119.8 3225,-119.8 4130.26,-119.8 4130.26,-119.8"/>
<polygon fill="black" stroke="black" points="4130.26,-123.3 4140.26,-119.8 4130.26,-116.3 4130.26,-123.3"/>
</g>
<!-- LinkPanelComponent -->
<g id="node29" class="node">
<title>LinkPanelComponent</title>
<polygon fill="#ffffb3" stroke="black" points="3127.38,-84.8 2988.62,-84.8 2988.62,-48.8 3127.38,-48.8 3127.38,-84.8"/>
<text text-anchor="middle" x="3058" y="-62.6" font-family="Times,serif" font-size="14.00">LinkPanelComponent</text>
</g>
<!-- LinkPanelComponent&#45;&gt;AppModule -->
<g id="edge29" class="edge">
<title>LinkPanelComponent&#45;&gt;AppModule</title>
<path fill="none" stroke="black" d="M3058,-84.81C3058,-100.85 3058,-121.8 3058,-121.8 3058,-121.8 4130.33,-121.8 4130.33,-121.8"/>
<polygon fill="black" stroke="black" points="4130.33,-125.3 4140.33,-121.8 4130.33,-118.3 4130.33,-125.3"/>
</g>
<!-- LoginPageComponent -->
<g id="node30" class="node">
<title>LoginPageComponent</title>
<polygon fill="#ffffb3" stroke="black" points="2970.99,-84.8 2829.01,-84.8 2829.01,-48.8 2970.99,-48.8 2970.99,-84.8"/>
<text text-anchor="middle" x="2900" y="-62.6" font-family="Times,serif" font-size="14.00">LoginPageComponent</text>
</g>
<!-- LoginPageComponent&#45;&gt;AppModule -->
<g id="edge30" class="edge">
<title>LoginPageComponent&#45;&gt;AppModule</title>
<path fill="none" stroke="black" d="M2900,-84.83C2900,-101.2 2900,-122.8 2900,-122.8 2900,-122.8 4130.07,-122.8 4130.07,-122.8"/>
<polygon fill="black" stroke="black" points="4130.07,-126.3 4140.07,-122.8 4130.07,-119.3 4130.07,-126.3"/>
</g>
<!-- MetadataPanelComponent -->
<g id="node31" class="node">
<title>MetadataPanelComponent</title>
<polygon fill="#ffffb3" stroke="black" points="2811.02,-84.8 2646.98,-84.8 2646.98,-48.8 2811.02,-48.8 2811.02,-84.8"/>
<text text-anchor="middle" x="2729" y="-62.6" font-family="Times,serif" font-size="14.00">MetadataPanelComponent</text>
</g>
<!-- MetadataPanelComponent&#45;&gt;AppModule -->
<g id="edge31" class="edge">
<title>MetadataPanelComponent&#45;&gt;AppModule</title>
<path fill="none" stroke="black" d="M2729,-84.83C2729,-101.86 2729,-124.8 2729,-124.8 2729,-124.8 4130.08,-124.8 4130.08,-124.8"/>
<polygon fill="black" stroke="black" points="4130.08,-128.3 4140.08,-124.8 4130.08,-121.3 4130.08,-128.3"/>
</g>
<!-- NavbarComponent -->
<g id="node32" class="node">
<title>NavbarComponent</title>
<polygon fill="#ffffb3" stroke="black" points="2628.03,-84.8 2505.97,-84.8 2505.97,-48.8 2628.03,-48.8 2628.03,-84.8"/>
<text text-anchor="middle" x="2567" y="-62.6" font-family="Times,serif" font-size="14.00">NavbarComponent</text>
</g>
<!-- NavbarComponent&#45;&gt;AppModule -->
<g id="edge32" class="edge">
<title>NavbarComponent&#45;&gt;AppModule</title>
<path fill="none" stroke="black" d="M2567,-84.82C2567,-102.17 2567,-125.8 2567,-125.8 2567,-125.8 4130.05,-125.8 4130.05,-125.8"/>
<polygon fill="black" stroke="black" points="4130.05,-129.3 4140.05,-125.8 4130.05,-122.3 4130.05,-129.3"/>
</g>
<!-- NotePanelComponent -->
<g id="node33" class="node">
<title>NotePanelComponent</title>
<polygon fill="#ffffb3" stroke="black" points="2487.65,-84.8 2348.35,-84.8 2348.35,-48.8 2487.65,-48.8 2487.65,-84.8"/>
<text text-anchor="middle" x="2418" y="-62.6" font-family="Times,serif" font-size="14.00">NotePanelComponent</text>
</g>
<!-- NotePanelComponent&#45;&gt;AppModule -->
<g id="edge33" class="edge">
<title>NotePanelComponent&#45;&gt;AppModule</title>
<path fill="none" stroke="black" d="M2418,-85.1C2418,-103.07 2418,-127.8 2418,-127.8 2418,-127.8 4130.14,-127.8 4130.14,-127.8"/>
<polygon fill="black" stroke="black" points="4130.14,-131.3 4140.14,-127.8 4130.14,-124.3 4130.14,-131.3"/>
</g>
<!-- PageNotFoundComponent -->
<g id="node34" class="node">
<title>PageNotFoundComponent</title>
<polygon fill="#ffffb3" stroke="black" points="2330.82,-84.8 2165.18,-84.8 2165.18,-48.8 2330.82,-48.8 2330.82,-84.8"/>
<text text-anchor="middle" x="2248" y="-62.6" font-family="Times,serif" font-size="14.00">PageNotFoundComponent</text>
</g>
<!-- PageNotFoundComponent&#45;&gt;AppModule -->
<g id="edge34" class="edge">
<title>PageNotFoundComponent&#45;&gt;AppModule</title>
<path fill="none" stroke="black" d="M2248,-85.07C2248,-103.36 2248,-128.8 2248,-128.8 2248,-128.8 4130.26,-128.8 4130.26,-128.8"/>
<polygon fill="black" stroke="black" points="4130.26,-132.3 4140.26,-128.8 4130.26,-125.3 4130.26,-132.3"/>
</g>
<!-- ProfilePageComponent -->
<g id="node35" class="node">
<title>ProfilePageComponent</title>
<polygon fill="#ffffb3" stroke="black" points="2147.14,-84.8 2000.86,-84.8 2000.86,-48.8 2147.14,-48.8 2147.14,-84.8"/>
<text text-anchor="middle" x="2074" y="-62.6" font-family="Times,serif" font-size="14.00">ProfilePageComponent</text>
</g>
<!-- ProfilePageComponent&#45;&gt;AppModule -->
<g id="edge35" class="edge">
<title>ProfilePageComponent&#45;&gt;AppModule</title>
<path fill="none" stroke="black" d="M2074,-84.97C2074,-103.89 2074,-130.8 2074,-130.8 2074,-130.8 4129.89,-130.8 4129.89,-130.8"/>
<polygon fill="black" stroke="black" points="4129.89,-134.3 4139.89,-130.8 4129.89,-127.3 4129.89,-134.3"/>
</g>
<!-- ProfilesTableComponent -->
<g id="node36" class="node">
<title>ProfilesTableComponent</title>
<polygon fill="#ffffb3" stroke="black" points="1982.25,-84.8 1825.75,-84.8 1825.75,-48.8 1982.25,-48.8 1982.25,-84.8"/>
<text text-anchor="middle" x="1904" y="-62.6" font-family="Times,serif" font-size="14.00">ProfilesTableComponent</text>
</g>
<!-- ProfilesTableComponent&#45;&gt;AppModule -->
<g id="edge36" class="edge">
<title>ProfilesTableComponent&#45;&gt;AppModule</title>
<path fill="none" stroke="black" d="M1904,-84.91C1904,-104.14 1904,-131.8 1904,-131.8 1904,-131.8 4130.02,-131.8 4130.02,-131.8"/>
<polygon fill="black" stroke="black" points="4130.02,-135.3 4140.02,-131.8 4130.02,-128.3 4130.02,-135.3"/>
</g>
<!-- SameAsComponent -->
<g id="node37" class="node">
<title>SameAsComponent</title>
<polygon fill="#ffffb3" stroke="black" points="1807.99,-84.8 1680.01,-84.8 1680.01,-48.8 1807.99,-48.8 1807.99,-84.8"/>
<text text-anchor="middle" x="1744" y="-62.6" font-family="Times,serif" font-size="14.00">SameAsComponent</text>
</g>
<!-- SameAsComponent&#45;&gt;AppModule -->
<g id="edge37" class="edge">
<title>SameAsComponent&#45;&gt;AppModule</title>
<path fill="none" stroke="black" d="M1744,-85.11C1744,-104.95 1744,-133.8 1744,-133.8 1744,-133.8 4130.2,-133.8 4130.2,-133.8"/>
<polygon fill="black" stroke="black" points="4130.2,-137.3 4140.2,-133.8 4130.2,-130.3 4130.2,-137.3"/>
</g>
<!-- SearchPageComponent -->
<g id="node38" class="node">
<title>SearchPageComponent</title>
<polygon fill="#ffffb3" stroke="black" points="1662.13,-84.8 1515.87,-84.8 1515.87,-48.8 1662.13,-48.8 1662.13,-84.8"/>
<text text-anchor="middle" x="1589" y="-62.6" font-family="Times,serif" font-size="14.00">SearchPageComponent</text>
</g>
<!-- SearchPageComponent&#45;&gt;AppModule -->
<g id="edge38" class="edge">
<title>SearchPageComponent&#45;&gt;AppModule</title>
<path fill="none" stroke="black" d="M1589,-85.02C1589,-105.17 1589,-134.8 1589,-134.8 1589,-134.8 4130.22,-134.8 4130.22,-134.8"/>
<polygon fill="black" stroke="black" points="4130.22,-138.3 4140.22,-134.8 4130.22,-131.3 4130.22,-138.3"/>
</g>
<!-- SeeAlsoComponent -->
<g id="node39" class="node">
<title>SeeAlsoComponent</title>
<polygon fill="#ffffb3" stroke="black" points="1497.99,-84.8 1370.01,-84.8 1370.01,-48.8 1497.99,-48.8 1497.99,-84.8"/>
<text text-anchor="middle" x="1434" y="-62.6" font-family="Times,serif" font-size="14.00">SeeAlsoComponent</text>
</g>
<!-- SeeAlsoComponent&#45;&gt;AppModule -->
<g id="edge39" class="edge">
<title>SeeAlsoComponent&#45;&gt;AppModule</title>
<path fill="none" stroke="black" d="M1434,-84.83C1434,-105.57 1434,-136.8 1434,-136.8 1434,-136.8 4130.21,-136.8 4130.21,-136.8"/>
<polygon fill="black" stroke="black" points="4130.21,-140.3 4140.21,-136.8 4130.21,-133.3 4130.21,-140.3"/>
</g>
<!-- SenseCoreFormComponent -->
<g id="node40" class="node">
<title>SenseCoreFormComponent</title>
<polygon fill="#ffffb3" stroke="black" points="1351.54,-84.8 1180.46,-84.8 1180.46,-48.8 1351.54,-48.8 1351.54,-84.8"/>
<text text-anchor="middle" x="1266" y="-62.6" font-family="Times,serif" font-size="14.00">SenseCoreFormComponent</text>
</g>
<!-- SenseCoreFormComponent&#45;&gt;AppModule -->
<g id="edge40" class="edge">
<title>SenseCoreFormComponent&#45;&gt;AppModule</title>
<path fill="none" stroke="black" d="M1266,-85.08C1266,-106.12 1266,-137.8 1266,-137.8 1266,-137.8 4130.22,-137.8 4130.22,-137.8"/>
<polygon fill="black" stroke="black" points="4130.22,-141.3 4140.22,-137.8 4130.22,-134.3 4130.22,-141.3"/>
</g>
<!-- SenseTabComponent -->
<g id="node41" class="node">
<title>SenseTabComponent</title>
<polygon fill="#ffffb3" stroke="black" points="1161.76,-84.8 1026.24,-84.8 1026.24,-48.8 1161.76,-48.8 1161.76,-84.8"/>
<text text-anchor="middle" x="1094" y="-62.6" font-family="Times,serif" font-size="14.00">SenseTabComponent</text>
</g>
<!-- SenseTabComponent&#45;&gt;AppModule -->
<g id="edge41" class="edge">
<title>SenseTabComponent&#45;&gt;AppModule</title>
<path fill="none" stroke="black" d="M1094,-84.84C1094,-106.46 1094,-139.8 1094,-139.8 1094,-139.8 4130.1,-139.8 4130.1,-139.8"/>
<polygon fill="black" stroke="black" points="4130.1,-143.3 4140.1,-139.8 4130.1,-136.3 4130.1,-143.3"/>
</g>
<!-- SenseVartransFormComponent -->
<g id="node42" class="node">
<title>SenseVartransFormComponent</title>
<polygon fill="#ffffb3" stroke="black" points="1008.02,-84.8 815.98,-84.8 815.98,-48.8 1008.02,-48.8 1008.02,-84.8"/>
<text text-anchor="middle" x="912" y="-62.6" font-family="Times,serif" font-size="14.00">SenseVartransFormComponent</text>
</g>
<!-- SenseVartransFormComponent&#45;&gt;AppModule -->
<g id="edge42" class="edge">
<title>SenseVartransFormComponent&#45;&gt;AppModule</title>
<path fill="none" stroke="black" d="M912,-85.09C912,-107.01 912,-140.8 912,-140.8 912,-140.8 4130.06,-140.8 4130.06,-140.8"/>
<polygon fill="black" stroke="black" points="4130.06,-144.3 4140.06,-140.8 4130.06,-137.3 4130.06,-144.3"/>
</g>
<!-- SynsemTabComponent -->
<g id="node43" class="node">
<title>SynsemTabComponent</title>
<polygon fill="#ffffb3" stroke="black" points="797.93,-84.8 650.07,-84.8 650.07,-48.8 797.93,-48.8 797.93,-84.8"/>
<text text-anchor="middle" x="724" y="-62.6" font-family="Times,serif" font-size="14.00">SynsemTabComponent</text>
</g>
<!-- SynsemTabComponent&#45;&gt;AppModule -->
<g id="edge43" class="edge">
<title>SynsemTabComponent&#45;&gt;AppModule</title>
<path fill="none" stroke="black" d="M724,-84.81C724,-107.29 724,-142.8 724,-142.8 724,-142.8 4130.14,-142.8 4130.14,-142.8"/>
<polygon fill="black" stroke="black" points="4130.14,-146.3 4140.14,-142.8 4130.14,-139.3 4130.14,-146.3"/>
</g>
<!-- TextDetailComponent -->
<g id="node44" class="node">
<title>TextDetailComponent</title>
<polygon fill="#ffffb3" stroke="black" points="632.7,-84.8 491.3,-84.8 491.3,-48.8 632.7,-48.8 632.7,-84.8"/>
<text text-anchor="middle" x="562" y="-62.6" font-family="Times,serif" font-size="14.00">TextDetailComponent</text>
</g>
<!-- TextDetailComponent&#45;&gt;AppModule -->
<g id="edge44" class="edge">
<title>TextDetailComponent&#45;&gt;AppModule</title>
<path fill="none" stroke="black" d="M562,-85.05C562,-107.82 562,-143.8 562,-143.8 562,-143.8 4130.09,-143.8 4130.09,-143.8"/>
<polygon fill="black" stroke="black" points="4130.09,-147.3 4140.09,-143.8 4130.09,-140.3 4130.09,-147.3"/>
</g>
<!-- TextTabComponent -->
<g id="node45" class="node">
<title>TextTabComponent</title>
<polygon fill="#ffffb3" stroke="black" points="473.26,-84.8 344.74,-84.8 344.74,-48.8 473.26,-48.8 473.26,-84.8"/>
<text text-anchor="middle" x="409" y="-62.6" font-family="Times,serif" font-size="14.00">TextTabComponent</text>
</g>
<!-- TextTabComponent&#45;&gt;AppModule -->
<g id="edge45" class="edge">
<title>TextTabComponent&#45;&gt;AppModule</title>
<path fill="none" stroke="black" d="M409,-85.12C409,-108.46 409,-145.8 409,-145.8 409,-145.8 4130.27,-145.8 4130.27,-145.8"/>
<polygon fill="black" stroke="black" points="4130.27,-149.3 4140.27,-145.8 4130.27,-142.3 4130.27,-149.3"/>
</g>
<!-- TextTreeComponent -->
<g id="node46" class="node">
<title>TextTreeComponent</title>
<polygon fill="#ffffb3" stroke="black" points="326.13,-84.8 193.87,-84.8 193.87,-48.8 326.13,-48.8 326.13,-84.8"/>
<text text-anchor="middle" x="260" y="-62.6" font-family="Times,serif" font-size="14.00">TextTreeComponent</text>
</g>
<!-- TextTreeComponent&#45;&gt;AppModule -->
<g id="edge46" class="edge">
<title>TextTreeComponent&#45;&gt;AppModule</title>
<path fill="none" stroke="black" d="M260,-84.95C260,-108.56 260,-146.8 260,-146.8 260,-146.8 4130.28,-146.8 4130.28,-146.8"/>
<polygon fill="black" stroke="black" points="4130.28,-150.3 4140.28,-146.8 4130.28,-143.3 4130.28,-150.3"/>
</g>
<!-- VartransTabComponent -->
<g id="node47" class="node">
<title>VartransTabComponent</title>
<polygon fill="#ffffb3" stroke="black" points="175.79,-84.8 24.21,-84.8 24.21,-48.8 175.79,-48.8 175.79,-84.8"/>
<text text-anchor="middle" x="100" y="-62.6" font-family="Times,serif" font-size="14.00">VartransTabComponent</text>
</g>
<!-- VartransTabComponent&#45;&gt;AppModule -->
<g id="edge47" class="edge">
<title>VartransTabComponent&#45;&gt;AppModule</title>
<path fill="none" stroke="black" d="M100,-85C100,-109.16 100,-148.8 100,-148.8 100,-148.8 4130.27,-148.8 4130.27,-148.8"/>
<polygon fill="black" stroke="black" points="4130.27,-152.3 4140.27,-148.8 4130.27,-145.3 4130.27,-152.3"/>
</g>
<!-- AppComponent  -->
<g id="node50" class="node">
<title>AppComponent </title>
<polygon fill="#80b1d3" stroke="black" points="4236.44,-214.8 4127.56,-214.8 4127.56,-178.8 4236.44,-178.8 4236.44,-214.8"/>
<text text-anchor="middle" x="4182" y="-192.6" font-family="Times,serif" font-size="14.00">AppComponent </text>
</g>
<!-- AppModule&#45;&gt;AppComponent  -->
<g id="edge49" class="edge">
<title>AppModule&#45;&gt;AppComponent </title>
<path fill="none" stroke="black" stroke-dasharray="1,5" d="M4182,-149.91C4182,-149.91 4182,-168.79 4182,-168.79"/>
<polygon fill="black" stroke="black" points="4178.5,-168.79 4182,-178.79 4185.5,-168.79 4178.5,-168.79"/>
</g>
<!-- AppRoutingModule -->
<g id="node49" class="node">
<title>AppRoutingModule</title>
<polygon fill="#8dd3c7" stroke="black" points="8566.27,-84.8 8563.27,-88.8 8542.27,-88.8 8539.27,-84.8 8437.73,-84.8 8437.73,-48.8 8566.27,-48.8 8566.27,-84.8"/>
<text text-anchor="middle" x="8502" y="-62.6" font-family="Times,serif" font-size="14.00">AppRoutingModule</text>
</g>
<!-- AppRoutingModule&#45;&gt;AppModule -->
<g id="edge48" class="edge">
<title>AppRoutingModule&#45;&gt;AppModule</title>
<path fill="none" stroke="black" d="M8502,-85C8502,-109.16 8502,-148.8 8502,-148.8 8502,-148.8 4233.72,-148.8 4233.72,-148.8"/>
<polygon fill="black" stroke="black" points="4233.72,-145.3 4223.72,-148.8 4233.72,-152.3 4233.72,-145.3"/>
</g>
</g>
</svg>
